# xmcd
#
# Track frame offsets:
# 150
# 23366
# 38401
# 53337
# 70299
# 89713
# 105266
# 120616
# 140673
# 161631
# 175582
# 193748
# 213574
#
# Disc length: 3232 seconds
#
# Revision: 0
# Processed by: cddbd v1.5.1PL0 Copyright (c) Steve Scherf et al.
# Submitted via: Coin'sHifi 0.9 coinshifi@hotmail.fr
#
DISCID=a60c9e0d
DTITLE=Jean Louis Aubert - Commun Accord
DYEAR=2003
DGENRE=blues
TTITLE0=Commun Accord
TTITLE1=L'essentiel
TTITLE2=Changer D'avis
TTITLE3=Alter Ego
TTITLE4=Alta Gracia
TTITLE5=L'amour
TTITLE6=Là
TTITLE7=Donne-moi Une Raison
TTITLE8=Cette Vie
TTITLE9=Voyager En Soi-même
TTITLE10=Milliers, Millions, Milliards
TTITLE11=Les Petits Riens
TTITLE12=Sur La Route
EXTD=
EXTT0=
EXTT1=
EXTT2=
EXTT3=
EXTT4=
EXTT5=
EXTT6=
EXTT7=
EXTT8=
EXTT9=
EXTT10=
EXTT11=
EXTT12=
PLAYORDER=
